<?xml version="1.0" encoding="UTF-8"?>
<!DOCTYPE svg PUBLIC "-//W3C//DTD SVG 1.1//EN" "http://www.w3.org/Graphics/SVG/1.1/DTD/svg11.dtd">
<!-- Creator: CorelDRAW -->
<svg xmlns="http://www.w3.org/2000/svg" xml:space="preserve" width="297mm" height="210mm" style="shape-rendering:geometricPrecision; text-rendering:geometricPrecision; image-rendering:optimizeQuality; fill-rule:evenodd; clip-rule:evenodd"
viewBox="0 0 297 210"
 xmlns:xlink="http://www.w3.org/1999/xlink">
 <defs>
  <style type="text/css">
   <![CDATA[
    .fil0 {fill:none}
    .fil2 {fill:#FF6600}
    .fil3 {fill:#98BF18}
    .fil1 {fill:black;fill-rule:nonzero}
   ]]>
  </style>
 </defs>
 <g id="Layer_x0020_1">
  <metadata id="CorelCorpID_0Corel-Layer"/>
  <rect class="fil0" width="297" height="210"/>
  <g id="_124531744">
   <path id="_125598016" class="fil1" d="M68.2281 148.279c3.8975,0 7.1613,1.3032 9.7915,3.9035 2.6242,2.6062 3.9393,5.8103 3.9393,9.6181 0,3.7719 -1.3091,6.97 -3.9333,9.5942 -2.6183,2.6302 -5.8163,3.9393 -9.5883,3.9393 -3.8137,0 -7.0357,-1.3031 -9.6659,-3.9214 -2.6242,-2.6122 -3.9393,-5.7804 -3.9393,-9.4926 0,-2.4747 0.5978,-4.7702 1.7933,-6.8803 1.1955,-2.1161 2.8274,-3.766 4.8957,-4.9675 2.0683,-1.1955 4.304,-1.7933 6.707,-1.7933zm0.1255 2.5226c-1.9068,0 -3.7061,0.4962 -5.4158,1.4885 -1.7036,0.9923 -3.0306,2.3313 -3.9931,4.011 -0.9564,1.6797 -1.4346,3.5567 -1.4346,5.619 0,3.0606 1.058,5.643 3.1801,7.7531 2.1161,2.1042 4.6746,3.1562 7.6634,3.1562 1.9966,0 3.8437,-0.4842 5.5414,-1.4525 1.6976,-0.9684 3.0247,-2.2955 3.9751,-3.9752 0.9505,-1.6797 1.4287,-3.5508 1.4287,-5.6011 0,-2.0444 -0.4782,-3.8915 -1.4287,-5.5473 -0.9504,-1.6499 -2.2894,-2.9709 -4.017,-3.9632 -1.7275,-0.9923 -3.5627,-1.4885 -5.4995,-1.4885z"/>
   <path id="_1255980161" class="fil1" d="M87.7975 148.924l5.1288 0c2.8634,0 4.8001,0.1196 5.8163,0.3527 1.5303,0.3527 2.7737,1.0999 3.7301,2.2476 0.9565,1.1537 1.4347,2.5704 1.4347,4.2502 0,1.3987 -0.3288,2.6301 -0.9863,3.6942 -0.6636,1.064 -1.6021,1.865 -2.8335,2.409 -1.2254,0.544 -2.9171,0.8189 -5.075,0.8309l9.2654 11.9793 -3.1921 0 -9.2415 -11.9793 -1.4705 0 0 11.9793 -2.5764 0 0 -25.7639zm2.5764 2.5226l0 8.7573 4.4294 0.0359c1.7156,0 2.9829,-0.1614 3.8078,-0.4902 0.825,-0.3287 1.4646,-0.8488 1.9249,-1.5661 0.4602,-0.7174 0.6934,-1.5243 0.6934,-2.409 0,-0.8668 -0.2332,-1.6499 -0.6994,-2.3553 -0.4663,-0.7053 -1.082,-1.2134 -1.8412,-1.5183 -0.7591,-0.2989 -2.0204,-0.4543 -3.7838,-0.4543l-4.5311 0z"/>
   <path id="_12559801612" class="fil1" d="M110.027 148.924l5.0811 0c2.0444,0 3.6105,0.2451 4.7104,0.7293 1.0939,0.4842 1.9607,1.2314 2.6003,2.2357 0.6337,1.0042 0.9565,2.1161 0.9565,3.3415 0,1.1477 -0.281,2.1878 -0.8429,3.1263 -0.5619,0.9385 -1.3868,1.7037 -2.4688,2.2835 1.339,0.4603 2.3732,0.9923 3.0965,1.602 0.7292,0.6157 1.2911,1.357 1.6916,2.2297 0.4005,0.8668 0.6038,1.8113 0.6038,2.8275 0,2.0623 -0.7532,3.8137 -2.2656,5.2424 -1.5123,1.4287 -3.5388,2.146 -6.0853,2.146l-7.0776 0 0 -25.7639zm2.5226 2.5226l0 8.2492 1.4706 0c1.7873,0 3.1024,-0.1673 3.9393,-0.4961 0.8428,-0.3348 1.5063,-0.8608 1.9965,-1.5781 0.4902,-0.7174 0.7353,-1.5124 0.7353,-2.3911 0,-1.1776 -0.4125,-2.1042 -1.2314,-2.7737 -0.825,-0.6754 -2.1341,-1.0102 -3.9334,-1.0102l-2.9769 0zm0 10.8436l0 9.8751 3.1862 0c1.8829,0 3.2578,-0.1853 4.1365,-0.5499 0.8728,-0.3707 1.5781,-0.9445 2.1101,-1.7276 0.5321,-0.7831 0.7951,-1.6259 0.7951,-2.5405 0,-1.1418 -0.3766,-2.14 -1.1238,-2.9948 -0.7472,-0.8489 -1.7694,-1.4347 -3.0785,-1.7455 -0.8788,-0.2152 -2.4031,-0.3168 -4.573,-0.3168l-1.4526 0z"/>
   <polygon id="_125598016123" class="fil1" points="129.907,174.688 133.565,148.924 133.99,148.924 144.463,170.067 154.828,148.924 155.247,148.924 158.947,174.688 156.406,174.688 153.884,156.265 144.774,174.688 144.128,174.688 134.899,156.127 132.394,174.688 "/>
   <polygon id="_1255980161234" class="fil1" points="164.588,148.924 179.353,148.924 179.353,151.465 167.165,151.465 167.165,159.523 179.251,159.523 179.251,162.045 167.165,162.045 167.165,172.148 179.251,172.148 179.251,174.688 164.588,174.688 "/>
   <path id="_12559801612345" class="fil1" d="M184.331 174.688l0 -25.7639 5.3441 0c3.8556,0 6.6472,0.3109 8.3867,0.9325 2.4987,0.8728 4.4534,2.3911 5.8581,4.5491 1.4108,2.1639 2.1102,4.7343 2.1102,7.7232 0,2.5823 -0.556,4.8538 -1.6678,6.8145 -1.1178,1.9607 -2.5644,3.4073 -4.3458,4.3458 -1.7814,0.9325 -4.2741,1.3988 -7.4841,1.3988l-8.2014 0zm2.4748 -2.4329l2.9769 0c3.5567,0 6.0255,-0.2212 7.4063,-0.6695 1.9368,-0.6277 3.4611,-1.7634 4.567,-3.4013 1.1119,-1.6439 1.6678,-3.6464 1.6678,-6.0196 0,-2.4867 -0.6038,-4.6088 -1.8053,-6.3722 -1.2015,-1.7634 -2.8753,-2.9709 -5.0272,-3.6285 -1.608,-0.4901 -4.2681,-0.7352 -7.9683,-0.7352l-1.8172 0 0 20.8263z"/>
   <polygon id="_125598016123456" class="fil1" points="211.187,148.924 213.764,148.924 213.764,174.688 211.187,174.688 "/>
   <path id="_1255980161234567" class="fil1" d="M244.182 153.706l-2.0324 1.5602c-1.1178,-1.4586 -2.4628,-2.5645 -4.035,-3.3177 -1.5721,-0.7532 -3.2937,-1.1298 -5.1767,-1.1298 -2.0563,0 -3.9572,0.4902 -5.7087,1.4765 -1.7514,0.9864 -3.1084,2.3134 -4.0708,3.9752 -0.9624,1.6678 -1.4466,3.5388 -1.4466,5.6131 0,3.1442 1.076,5.7625 3.234,7.8666 2.1519,2.0982 4.8718,3.1503 8.1535,3.1503 3.6046,0 6.6233,-1.4108 9.0503,-4.2382l2.0324 1.5422c-1.2852,1.6319 -2.8872,2.8992 -4.8061,3.7899 -1.9188,0.8966 -4.0648,1.339 -6.438,1.339 -4.5071,0 -8.0579,-1.5004 -10.6642,-4.5012 -2.1818,-2.5286 -3.2757,-5.5892 -3.2757,-9.1758 0,-3.7719 1.321,-6.9401 3.9691,-9.5165 2.6422,-2.5764 5.9538,-3.8616 9.935,-3.8616 2.409,0 4.5789,0.4782 6.5157,1.4287 1.9367,0.9504 3.5268,2.2835 4.7642,3.9991z"/>
   <polygon id="_125593024" class="fil1" points="83.0035,181.762 83.6286,181.762 84.8648,186.145 86.6089,181.762 86.7331,181.762 88.4575,186.145 89.7176,181.762 90.3385,181.762 88.593,187.844 88.4772,187.844 86.6752,183.242 84.8352,187.844 84.7194,187.844 "/>
   <polygon id="_1255930241" class="fil1" points="94.9487,181.762 98.4341,181.762 98.4341,182.362 95.5568,182.362 95.5568,184.264 98.4101,184.264 98.4101,184.859 95.5568,184.859 95.5568,187.244 98.4101,187.244 98.4101,187.844 94.9487,187.844 "/>
   <polygon id="_12559302412" class="fil1" points="102.954,181.762 103.566,181.762 103.566,187.257 105.902,187.257 105.902,187.844 102.954,187.844 "/>
   <polygon id="_125593024123" class="fil1" points="110.334,181.762 110.947,181.762 110.947,187.257 113.282,187.257 113.282,187.844 110.334,187.844 "/>
   <polygon id="_1255930241234" class="fil1" points="117.719,187.844 117.719,181.762 117.851,181.762 121.894,186.417 121.894,181.762 122.494,181.762 122.494,187.844 122.357,187.844 118.348,183.246 118.348,187.844 "/>
   <polygon id="_12559302412345" class="fil1" points="127.451,181.762 130.937,181.762 130.937,182.362 128.059,182.362 128.059,184.264 130.913,184.264 130.913,184.859 128.059,184.859 128.059,187.244 130.913,187.244 130.913,187.844 127.451,187.844 "/>
   <path id="_125593024123456" class="fil1" d="M134.829 186.711l0.5164 -0.3091c0.3641,0.6689 0.7846,1.0033 1.2616,1.0033 0.2032,0 0.3951,-0.0465 0.5743,-0.1425 0.1792,-0.0945 0.3161,-0.2215 0.4092,-0.3824 0.0946,-0.1594 0.1411,-0.3288 0.1411,-0.508 0,-0.2046 -0.0691,-0.4036 -0.2074,-0.5997 -0.1905,-0.2695 -0.5376,-0.5955 -1.0414,-0.9751 -0.5066,-0.3838 -0.8227,-0.6604 -0.9469,-0.8311 -0.2144,-0.2865 -0.3217,-0.597 -0.3217,-0.93 0,-0.2653 0.0621,-0.5066 0.1891,-0.7239 0.127,-0.2173 0.3062,-0.3894 0.5362,-0.515 0.23,-0.1256 0.4798,-0.1877 0.7493,-0.1877 0.2879,0 0.556,0.0705 0.8044,0.2131 0.2497,0.1411 0.5136,0.4035 0.7916,0.7831l-0.4953 0.3768c-0.2286,-0.3034 -0.4247,-0.5038 -0.5856,-0.5997 -0.1609,-0.096 -0.3373,-0.1454 -0.5264,-0.1454 -0.2455,0 -0.4459,0.0748 -0.6025,0.2244 -0.1552,0.1482 -0.2328,0.3316 -0.2328,0.5489 0,0.1327 0.0268,0.2611 0.0818,0.3853 0.0564,0.1241 0.1566,0.2582 0.302,0.405 0.0804,0.0762 0.3429,0.2794 0.786,0.6067 0.5263,0.3895 0.8876,0.7352 1.0837,1.0386 0.1947,0.3034 0.2935,0.6068 0.2935,0.913 0,0.4417 -0.1679,0.8241 -0.5023,1.1501 -0.3359,0.3245 -0.7423,0.4868 -1.2221,0.4868 -0.3697,0 -0.7041,-0.0974 -1.0047,-0.2949 -0.3005,-0.1976 -0.5771,-0.5278 -0.8311,-0.9906z"/>
   <path id="_1255930241234567" class="fil1" d="M142.515 186.711l0.5164 -0.3091c0.3641,0.6689 0.7846,1.0033 1.2616,1.0033 0.2032,0 0.3951,-0.0465 0.5743,-0.1425 0.1792,-0.0945 0.3161,-0.2215 0.4092,-0.3824 0.0946,-0.1594 0.1411,-0.3288 0.1411,-0.508 0,-0.2046 -0.0691,-0.4036 -0.2074,-0.5997 -0.1905,-0.2695 -0.5376,-0.5955 -1.0414,-0.9751 -0.5066,-0.3838 -0.8227,-0.6604 -0.9469,-0.8311 -0.2144,-0.2865 -0.3217,-0.597 -0.3217,-0.93 0,-0.2653 0.0621,-0.5066 0.1891,-0.7239 0.127,-0.2173 0.3062,-0.3894 0.5362,-0.515 0.23,-0.1256 0.4798,-0.1877 0.7493,-0.1877 0.2879,0 0.556,0.0705 0.8044,0.2131 0.2497,0.1411 0.5136,0.4035 0.7916,0.7831l-0.4953 0.3768c-0.2286,-0.3034 -0.4247,-0.5038 -0.5856,-0.5997 -0.1609,-0.096 -0.3373,-0.1454 -0.5264,-0.1454 -0.2455,0 -0.4459,0.0748 -0.6025,0.2244 -0.1552,0.1482 -0.2328,0.3316 -0.2328,0.5489 0,0.1327 0.0268,0.2611 0.0818,0.3853 0.0564,0.1241 0.1566,0.2582 0.302,0.405 0.0804,0.0762 0.3429,0.2794 0.786,0.6067 0.5263,0.3895 0.8876,0.7352 1.0837,1.0386 0.1947,0.3034 0.2935,0.6068 0.2935,0.913 0,0.4417 -0.1679,0.8241 -0.5023,1.1501 -0.3359,0.3245 -0.7423,0.4868 -1.2221,0.4868 -0.3697,0 -0.7041,-0.0974 -1.0047,-0.2949 -0.3005,-0.1976 -0.5771,-0.5278 -0.8311,-0.9906z"/>
   <path id="_12559302412345678" class="fil1" d="M153.173 187.844l0 -6.0819 1.2616 0c0.9101,0 1.5691,0.0734 1.9798,0.2201 0.5898,0.206 1.0512,0.5645 1.3829,1.0739 0.333,0.5108 0.4981,1.1176 0.4981,1.8231 0,0.6096 -0.1313,1.1459 -0.3937,1.6087 -0.2639,0.4629 -0.6054,0.8044 -1.0259,1.0259 -0.4205,0.2201 -1.009,0.3302 -1.7667,0.3302l-1.9361 0zm0.5842 -0.5743l0.7028 0c0.8396,0 1.4224,-0.0522 1.7483,-0.1581 0.4572,-0.1481 0.8171,-0.4162 1.0781,-0.8029 0.2625,-0.3881 0.3937,-0.8608 0.3937,-1.421 0,-0.587 -0.1425,-1.088 -0.4261,-1.5042 -0.2837,-0.4163 -0.6788,-0.7014 -1.1868,-0.8566 -0.3796,-0.1157 -1.0075,-0.1736 -1.881,-0.1736l-0.429 0 0 4.9164z"/>
   <polygon id="_125593024123456789" class="fil1" points="162.948,181.762 166.434,181.762 166.434,182.362 163.556,182.362 163.556,184.264 166.41,184.264 166.41,184.859 163.556,184.859 163.556,187.244 166.41,187.244 166.41,187.844 162.948,187.844 "/>
   <path id="_12559302412345678910" class="fil1" d="M176.618 182.891l-0.4797 0.3683c-0.2639,-0.3443 -0.5814,-0.6054 -0.9525,-0.7832 -0.3712,-0.1778 -0.7776,-0.2667 -1.2221,-0.2667 -0.4854,0 -0.9341,0.1157 -1.3476,0.3486 -0.4134,0.2328 -0.7338,0.5461 -0.9609,0.9383 -0.2272,0.3938 -0.3415,0.8354 -0.3415,1.3251 0,0.7422 0.254,1.3603 0.7634,1.857 0.508,0.4953 1.15,0.7437 1.9247,0.7437 0.8509,0 1.5636,-0.333 2.1365,-1.0005l0.4797 0.3641c-0.3033,0.3852 -0.6815,0.6844 -1.1345,0.8946 -0.453,0.2117 -0.9595,0.3161 -1.5198,0.3161 -1.0639,0 -1.9021,-0.3542 -2.5174,-1.0626 -0.5151,-0.5969 -0.7733,-1.3194 -0.7733,-2.166 0,-0.8904 0.3119,-1.6383 0.937,-2.2465 0.6237,-0.6082 1.4055,-0.9116 2.3453,-0.9116 0.5687,0 1.0809,0.1129 1.5381,0.3372 0.4572,0.2244 0.8325,0.5391 1.1246,0.9441z"/>
   <path id="_1255930241234567891011" class="fil1" d="M184.205 181.609c0.92,0 1.6905,0.3076 2.3114,0.9214 0.6194,0.6153 0.9299,1.3717 0.9299,2.2705 0,0.8904 -0.309,1.6454 -0.9285,2.2649 -0.6181,0.6209 -1.373,0.9299 -2.2635,0.9299 -0.9002,0 -1.6608,-0.3076 -2.2817,-0.9257 -0.6195,-0.6166 -0.93,-1.3645 -0.93,-2.2408 0,-0.5842 0.1412,-1.1261 0.4234,-1.6242 0.2822,-0.4996 0.6674,-0.889 1.1557,-1.1727 0.4882,-0.2822 1.016,-0.4233 1.5833,-0.4233zm0.0296 0.5955c-0.4502,0 -0.8749,0.1171 -1.2785,0.3513 -0.4021,0.2343 -0.7154,0.5504 -0.9426,0.9469 -0.2258,0.3965 -0.3387,0.8396 -0.3387,1.3265 0,0.7224 0.2498,1.332 0.7507,1.8302 0.4996,0.4967 1.1035,0.745 1.8091,0.745 0.4713,0 0.9073,-0.1143 1.3081,-0.3429 0.4008,-0.2286 0.714,-0.5418 0.9384,-0.9384 0.2244,-0.3965 0.3372,-0.8382 0.3372,-1.3222 0,-0.4826 -0.1128,-0.9186 -0.3372,-1.3095 -0.2244,-0.3895 -0.5405,-0.7013 -0.9483,-0.9356 -0.4078,-0.2342 -0.841,-0.3513 -1.2982,-0.3513z"/>
   <path id="_125593024123456789101112" class="fil1" d="M192.136 187.844l0 -6.0819 1.2616 0c0.9101,0 1.5691,0.0734 1.9798,0.2201 0.5898,0.206 1.0512,0.5645 1.3829,1.0739 0.333,0.5108 0.4981,1.1176 0.4981,1.8231 0,0.6096 -0.1313,1.1459 -0.3937,1.6087 -0.2639,0.4629 -0.6054,0.8044 -1.0259,1.0259 -0.4205,0.2201 -1.009,0.3302 -1.7667,0.3302l-1.9361 0zm0.5842 -0.5743l0.7028 0c0.8396,0 1.4224,-0.0522 1.7483,-0.1581 0.4572,-0.1481 0.8171,-0.4162 1.0781,-0.8029 0.2625,-0.3881 0.3937,-0.8608 0.3937,-1.421 0,-0.587 -0.1425,-1.088 -0.4261,-1.5042 -0.2837,-0.4163 -0.6788,-0.7014 -1.1868,-0.8566 -0.3796,-0.1157 -1.0075,-0.1736 -1.881,-0.1736l-0.429 0 0 4.9164z"/>
   <polygon id="_12559302412345678910111213" class="fil1" points="201.911,181.762 205.396,181.762 205.396,182.362 202.519,182.362 202.519,184.264 205.372,184.264 205.372,184.859 202.519,184.859 202.519,187.244 205.372,187.244 205.372,187.844 201.911,187.844 "/>
   <path id="_1255930241234567891011121314" class="fil1" d="M209.916 187.844l0 -6.0819 1.2616 0c0.9101,0 1.5691,0.0734 1.9798,0.2201 0.5898,0.206 1.0512,0.5645 1.3829,1.0739 0.333,0.5108 0.4981,1.1176 0.4981,1.8231 0,0.6096 -0.1313,1.1459 -0.3937,1.6087 -0.2639,0.4629 -0.6054,0.8044 -1.0259,1.0259 -0.4205,0.2201 -1.009,0.3302 -1.7667,0.3302l-1.9361 0zm0.5842 -0.5743l0.7028 0c0.8396,0 1.4224,-0.0522 1.7483,-0.1581 0.4572,-0.1481 0.8171,-0.4162 1.0781,-0.8029 0.2625,-0.3881 0.3937,-0.8608 0.3937,-1.421 0,-0.587 -0.1425,-1.088 -0.4261,-1.5042 -0.2837,-0.4163 -0.6788,-0.7014 -1.1868,-0.8566 -0.3796,-0.1157 -1.0075,-0.1736 -1.881,-0.1736l-0.429 0 0 4.9164z"/>
   <path id="_125593096" class="fil2" d="M148.44 49.7153l0.0603 0.0509c0.7045,-0.6007 1.4353,-1.1717 2.1901,-1.711 3.8241,-2.5926 8.0814,-4.1328 12.5132,-4.8896 4.6797,-0.7991 9.5496,-0.7255 14.3118,-0.0936 13.9286,3.5864 24.2234,16.2333 24.2234,31.28 0,16.1335 -19.4618,34.2505 -36.0841,48.7882 -0.3106,-0.6294 -0.6288,-1.2679 -0.956,-1.9193 -0.1035,-0.2059 -0.2788,-0.5698 -0.4439,-0.9128 -1.1509,-2.3895 -1.8511,-3.8434 -5.2019,-4.7247 -1.9245,-0.5061 -4.1,-0.1909 -6.0759,0.0954 -0.4878,0.0706 -0.9626,0.1395 -1.425,0.193 -1.2305,0.1424 -2.4054,0.2159 -3.5496,0.1454 -1.1185,-0.069 -2.2202,-0.2751 -3.3357,-0.6894 -1.7923,-0.666 -1.5851,-2.4111 -1.3857,-4.0902 0.0645,-0.544 0.1285,-1.0825 0.1463,-1.6749 0.0498,-1.6658 -0.3777,-2.2641 -1.0477,-3.2016 -0.1509,-0.211 -0.3171,-0.4436 -0.4629,-0.6722 -0.4657,-0.7305 -0.1296,-1.2923 0.3373,-2.0723l0.0815 -0.1363 0.577 -0.9654 -0.9196 -0.5769c0.3691,0.0004 0.7382,0.0008 1.1075,0.0007 2.8991,-0.0009 5.7981,0.0009 8.6971,0.0009 1.4551,0 2.9539,0.0395 4.4028,-0.0122 1.9167,-0.0686 1.7487,-0.0176 2.9409,1.2158 0.6422,0.6642 1.3513,1.2963 2.0013,1.9698 0.3641,0.3771 1.5961,1.7046 1.9393,1.9255 0.5763,0.3709 1.7828,0.3231 2.4808,0.2832 1.5115,-0.0862 1.2136,0.3369 2.003,1.3564 1.1202,1.447 3.5185,1.2714 4.7095,-0.0422 1.3589,-1.4989 0.9099,-4.0416 -0.9313,-4.9703 -0.7751,-0.391 -1.7995,-0.4893 -2.5977,-0.1189 -1.7271,0.8015 -1.1619,0.6221 -3.102,0.6566 -1.6533,0.0294 -1.554,-0.2027 -2.6227,-1.314 -0.6634,-0.6899 -1.4493,-1.4536 -2.1482,-2.1116 -0.6095,-0.5737 -1.3425,-1.6415 -2.1662,-1.7061 -0.4148,-0.0326 -0.8799,0.0465 -1.3223,0.0322 -0.5125,-0.0165 -1.0247,-0.0226 -1.5375,-0.0259 -4.6492,-0.0308 -9.3155,-0.0015 -13.9663,0.0035 -0.6628,0.0007 -1.3257,0.0008 -1.9885,0.0007 0.0028,-0.3701 0.0497,-0.7554 0.093,-1.1118 0.0888,-0.7315 0.1675,-1.3786 -0.0466,-2.008 -0.4099,-1.2052 -1.4578,-1.5164 -2.6164,-1.8603 -0.7845,-0.2329 -1.6661,-0.4947 -1.917,-1.2816l3.0411 0c4.4169,0.0001 8.8337,0 13.2505,0 4.4166,0.0001 8.8365,-0.0164 13.2527,0.0011 0.7862,0.0031 2.8717,-0.1187 3.4662,-0.0086 1.1271,0.2087 2.3795,1.8707 3.2511,2.7024 0.8427,0.8043 1.9842,2.3732 3.0837,2.5597 1.1421,0.1939 2.4047,-0.343 3.3847,0.244 1.3538,0.811 1.7071,1.744 3.5137,1.2666 1.4435,-0.3814 2.4911,-1.7036 2.4327,-3.2153 -0.0548,-1.4158 -1.1637,-2.792 -2.5999,-2.9502 -2.4159,-0.2663 -2.089,0.7632 -3.6788,1.4521 -1.4678,0.6359 -2.8442,0.0885 -3.8418,-1.0509 -0.4773,-0.5452 -0.937,-0.9876 -1.4643,-1.4803 -0.5257,-0.4912 -0.9538,-1.0308 -1.4568,-1.5195 -1.2696,-1.2336 -2.5888,-0.7555 -4.1655,-0.8001 -1.4643,-0.0412 -2.9658,-0.0092 -4.4343,-0.0092 -8.7384,0 -17.5148,-0.0692 -26.2695,-0.0489 0.5716,-1.233 1.3031,-2.5976 1.7431,-3.4186l0.1674 -0.3129c0.2173,-0.4074 0.443,-0.8001 0.6687,-1.1926 0.2584,-0.4494 0.5171,-0.8993 0.759,-1.3563l8.5143 0c6.356,0 12.7716,-0.0854 19.1198,0.0232 2.4024,0.041 2.8678,-0.5984 4.807,1.4904 0.8958,0.9648 3.4682,3.822 4.4519,4.3473 0.8827,0.4713 1.7185,0.3875 2.6776,0.3252 0.9099,-0.0591 1.8303,-0.0232 2.7428,-0.0103 1.0168,0.0144 1.7417,-0.0136 2.7538,-0.0758 1.1292,-0.0694 1.7991,0.2378 2.701,0.8863 0.8361,0.6012 1.5285,1.2312 2.6384,1.0565 1.0011,-0.1575 1.909,-0.8499 2.3604,-1.751 1.0392,-2.0746 -0.3946,-4.5452 -2.6719,-4.5723 -1.1024,-0.0132 -1.7664,0.6961 -2.7289,1.0669 -1.2353,0.476 -2.6209,0.2468 -3.9119,0.2102 -1.5266,-0.0432 -3.3504,0.2397 -4.8042,-0.0226 -1.3812,-0.2492 -1.8126,-0.8559 -2.726,-1.8013 -2.4399,-2.5256 -2.2729,-2.2386 0.2945,-4.7096 1.9629,-1.8892 3.0049,-2.2116 5.4363,-0.6824 0.8824,0.555 1.6148,0.9505 2.6857,0.648 1.053,-0.2976 1.8929,-1.0638 2.2041,-2.1234 0.3292,-1.1212 0.0885,-2.1345 -0.7013,-2.9937 -0.3488,-0.3794 -0.7819,-0.6609 -1.272,-0.8218 -0.2139,-0.0702 -1.2886,-0.2664 -1.469,-0.2303 -0.4749,0.0952 -1.8599,1.163 -2.4087,1.4216 -1.0034,0.4729 -2.0284,0.1251 -3.0568,0.2626 -1.1902,0.1592 -1.6902,0.8549 -2.4495,1.6855 -0.7017,0.7677 -1.4391,1.4742 -2.1563,2.2253 -1.8971,1.9861 -2.3876,1.4261 -4.7419,1.4531 -1.5999,0.0184 -3.188,0.0243 -4.7882,0.0243 -6.3724,0 -12.7448,0 -19.1172,0l-3.3151 0c0.1867,-0.7804 0.2585,-1.6063 0.1527,-2.5018 -0.1539,-1.3025 -0.567,-2.2173 -0.9998,-3.1545 7.0743,0.0316 20.1094,-0.0451 22.061,-0.0481 2.1927,-0.0033 4.4346,0.0485 6.6204,-0.0043 1.2378,-0.0298 2.2103,0.3219 3.218,-0.6155 0.4861,-0.4521 0.9197,-1.0062 1.4041,-1.4796 0.471,-0.4603 0.968,-0.911 1.4281,-1.378 1.3428,-1.3628 1.1445,-1.7141 3.2921,-1.6822 2.3668,0.0352 2.0423,1.1729 3.6629,1.387 2.8863,0.3814 4.7745,-3.1436 2.5372,-5.3128 -0.8997,-0.8722 -2.4744,-1.2165 -3.5622,-0.4861 -0.5079,0.341 -0.8481,0.9017 -1.3528,1.1929 -0.6543,0.3774 -1.6596,0.1461 -2.3911,0.1364 -1.9156,-0.0251 -2.2279,1.0871 -3.4782,2.2067 -0.9352,0.8375 -1.8155,1.97 -2.7446,2.7646 -0.9721,0.8313 -1.7856,0.496 -2.9394,0.5318 -0.9508,0.0295 -1.9506,0.0005 -2.9071,0.0005 -1.9373,0 -3.8746,0 -5.8119,0 -3.8685,0 -7.737,0 -11.6055,0 -1.9373,0 -3.8746,0 -5.8119,0 -0.8132,0 -1.6869,-0.0202 -2.5679,-0.0295 -0.0504,-0.332 -0.0831,-0.6905 -0.0924,-1.0829 -0.0444,-1.8702 0.0519,-3.6571 0.292,-5.3634 0.3304,-0.0003 0.6609,-0.0002 0.9912,0.0003 3.6452,0.0058 7.2953,0 10.9414,0 0.9589,0 1.9177,0.0007 2.8766,0.0008 0.7866,0.0002 2.1589,0.0829 2.8725,0.002 0.8976,-0.1017 1.5293,-1.0759 2.1812,-1.6624 0.5147,-0.463 1.6757,-1.8821 2.0951,-2.1388 0.8309,-0.5084 1.7078,-0.03 2.7961,-0.7317 1.0282,-0.663 1.4875,-1.2118 1.5145,-2.4834 0.0306,-1.4377 -0.2445,-1.8334 -1.2988,-2.6943 -0.6479,-0.5292 -1.7527,-0.5798 -2.5404,-0.4287 -0.7826,0.1503 -1.6886,1.1988 -1.9782,1.9232 -0.4179,1.0461 0.2608,1.8266 -0.3865,2.584 -0.4765,0.5576 -1.26,1.2531 -1.8076,1.7775 -0.6841,0.6551 -0.9794,1.3577 -2.1064,1.3518 -2.8933,-0.0149 -5.7863,-0.0158 -8.6805,-0.0158l-6.9981 0c0.4566,-1.9254 1.1168,-3.7394 1.9861,-5.4463 1.6049,-3.1513 3.9277,-5.9487 7.0003,-8.4189z"/>
   <path id="_125593168" class="fil3" d="M128.407 22.0038c8.3195,5.2212 12.3132,16.4631 11.0561,25.9208 -0.5528,4.1596 -1.9417,8.3662 -3.7455,12.7365 -3.2112,7.7803 -7.6088,14.8915 -12.0733,22.1105 -6.4658,10.4567 -9.1014,24.136 0.5106,33.9732 -39.8403,-36.1065 23.0136,-59.0114 4.2521,-94.741zm-18.1427 81.5691c-8.0167,-8.4557 -15.0031,-18.3857 -15.0031,-29.2209 0,-17.3373 13.6683,-31.487 30.8144,-32.2628 -7.7385,18.0929 -30.2087,34.4842 -15.8113,61.4837zm26.3287 -36.9048c-0.1731,1.556 -0.239,3.1705 -0.1992,4.8453 0.0526,2.2202 0.6492,3.5115 1.2202,4.7475 0.3634,0.7867 0.7145,1.5466 0.8297,2.5221 0.2141,1.8129 -0.737,3.4673 -1.6833,5.1131 -0.2423,0.4214 -0.4845,0.8427 -0.7046,1.2555l-0.1675 0.313c-0.8974,1.6741 -2.8873,5.3867 -2.848,6.9774 0.0693,2.8071 1.971,3.3718 3.6335,3.8653 0.5564,0.1651 1.0596,0.3146 1.0863,0.3931 0.0441,0.1297 -0.0054,0.5382 -0.0615,0.9998 -0.0642,0.5278 -0.1341,1.1029 -0.1034,1.7117 -4.723,10.2702 -5.5952,20.7067 2.6837,31.5012 -32.4746,-28.8631 -13.0806,-37.7677 -3.6859,-64.245zm4.5832 48.5123c0.3988,0.9391 1.195,1.7436 2.6889,2.2986 1.3529,0.5025 2.6727,0.7515 4.0017,0.8334 1.3032,0.0805 2.6025,0.0013 3.9458,-0.1543 0.4668,-0.0541 0.9705,-0.1271 1.4879,-0.202 1.7599,-0.255 3.6978,-0.5357 5.1668,-0.1495 2.3253,0.6117 2.8518,1.7045 3.7167,3.5006 0.1165,0.242 0.2386,0.4953 0.4619,0.9398 0.4196,0.8354 0.825,1.6505 1.2189,2.4548 -5.6069,4.8828 -10.7879,9.3241 -14.6483,13.099 -6.0728,-8.1975 -9.1122,-14.8967 -8.0403,-22.6204z"/>
  </g>
 </g>
</svg>
